<svg xmlns="http://www.w3.org/2000/svg" width="805.097" height="577.436" viewBox="0 0 805.097 577.436"><defs><style>.a{fill:rgba(17,0,255,0.53);opacity:0.19;}.b{fill:#756cff;opacity:0.42;}.c{fill:#d3c4ba;}.d{fill:#c5c6fe;}.e{fill:#e3e4ff;}.f{fill:#0f1d5b;}.g{fill:#4b9296;}.h{fill:#fd5e5a;}.i{fill:#fc7575;}.j{fill:#1e3340;}.k{fill:#b4d2d9;}.l{fill:#004e9e;}.m{fill:#cae9ef;}.n{fill:#eaf6f9;}.o{fill:#2d1e66;}.p{fill:#f0e6a6;}.q{fill:#111f59;}.r{fill:#757ad8;}.s{fill:#38ab01;}.t{fill:#c9bbb1;}.u{fill:#0c0c0d;}.v{fill:#edd8ca;}.w{fill:#fbe9dc;}.x{fill:#fff4f0;}.y{fill:#2846a6;}.z{fill:#172866;}.aa{fill:#535461;}.ab{fill:#3f3d56;}.ac{fill:#9d9cb5;}.ad{fill:#6c63ff;}.ae{fill:none;stroke:#535461;stroke-miterlimit:10;stroke-width:2px;}</style></defs><g transform="translate(-807.447 -196.643)"><g transform="translate(807.447 196.643)"><g transform="translate(0 0)"><path class="a" d="M1.525,338.2H75.2V438.628H6.912c-.174,1.038-.348,2.069-.545,3.107H75.2v80.979a1.041,1.041,0,0,1-.341-.131c-1.938-.769-3.87-1.59-5.808-2.447-.414-.189-.82-.385-1.241-.566-1.938-.915-3.87-1.888-5.808-2.9-.675-.356-1.35-.726-2.011-1.1a120.967,120.967,0,0,1-28.968-22.55c-.254-.24-.486-.5-.726-.726-1.176-1.278-2.33-2.57-3.449-3.891-.421-.486-.828-.98-1.241-1.452-1.321-1.612-2.6-3.282-3.833-4.959-.189-.254-.363-.5-.545-.726A107.447,107.447,0,0,1,8.712,458.681c-.1-.24-.2-.5-.29-.726-1-2.541-1.909-5.082-2.693-7.746-.334-1.1-.661-2.178-.937-3.318-.1-.327-.182-.661-.269-.987C.472,429.822,0,413.109,0,396.477v-5.808Q.087,380.5.24,370.34q.058-2.614.109-5.249.152-6.672.436-13.373c.044-1.234.1-2.476.167-3.7q.044-1.067.109-2.135Q1.256,342,1.525,338.2Z" transform="translate(0 -89.283)"/><path class="a" d="M88.327,164.907H47.91a306.553,306.553,0,0,1,21.5-29.578c6.011-7.376,12.342-14.564,18.92-21.49Z" transform="translate(-13.127 -30.365)"/><path class="a" d="M75.863,188.44V294.059H2.42c0-.3.044-.617.073-.922.065-.835.131-1.663.2-2.5.073-.973.167-1.946.261-2.9s.189-2.12.3-3.173.211-2.12.327-3.173.232-2.105.363-3.151.247-2.105.392-3.151c.109-.864.218-1.735.341-2.606.167-1.227.341-2.454.523-3.674a3.492,3.492,0,0,1,.087-.552,253.372,253.372,0,0,1,5.4-26.514,196.588,196.588,0,0,1,9.111-26.862A202.171,202.171,0,0,1,33.515,188.44Z" transform="translate(-0.663 -50.096)"/><path class="a" d="M127.82,247.714V349.035H287.74V247.714Zm0,104.456v87.016c.915.183,1.815.366,2.722.52,1.217.234,2.442.447,3.689.63l.738.1c.487.081.981.146,1.476.205,1.232.176,2.464.308,3.689.425.575.059,1.173.1,1.756.154l1.424.1h0c.775.059,1.542.1,2.309.132a13.278,13.278,0,0,1,1.424.051,8.148,8.148,0,0,0,1.121,0H152.3c.634,0,1.269,0,1.9-.059h.037a11.384,11.384,0,0,0,1.321-.051h.376a8.911,8.911,0,0,0,1.092-.044,1.428,1.428,0,0,1,.251,0c.819-.051,1.645-.117,2.479-.191s1.623-.161,2.457-.249l1.675-.205a147.845,147.845,0,0,0,20.252-4.278c14.925-4.131,29.511-9.91,44.429-14.137,19.271-5.457,40.578-8.145,59.2-1.465V352.17ZM287.74,134.9V0a206.911,206.911,0,0,0-51.954,6.043c-40.5,10.115-76.847,32.045-107.966,60v68.851h8.049v3.128H127.82V244.579H287.74V138.021H168.8v-3.135ZM493.2,89.356A66.562,66.562,0,0,1,464.2,80.991c-17.22-9.295-30.987-23.666-46.362-35.781C385.893,19.962,346.275,4.72,305.631.94V134.9H533.906l.568-.593Zm20.8-3.662,22.052,24.032V79.35c-7.422.93-13.885,3.091-22.052,6.292Zm22.052,375.123V352.17H489.02c-.118-.461-.251-.93-.4-1.4.14.469.266.938.391,1.4H305.631v78.549c1.741,1.282,3.46,2.637,5.164,4h0q2.759,2.241,5.482,4.534l1.83,1.465c.878.732,1.771,1.465,2.656,2.2q2.671,2.131,5.364,4.219,1.35,1.055,2.715,2.073a371.034,371.034,0,0,0,45.476,29.526c3.556,1.97,7.149,3.867,10.764,5.72q3.608,1.846,7.267,3.618,5.489,2.659,11.067,5.127h0a408.9,408.9,0,0,0,107.715,31.144q12.38,1.8,24.87,2.857V460.78h.738Zm-230.414-322.8V244.579H536.045V138.021Zm0,109.679V349.035H536.045V247.714Zm248.3-168.466v33.913l28.139-30.668Q568.08,80.156,553.929,79.2Zm0,168.51V349.035h224.1V247.714Zm223.31,221.115.789-116.659h-224.1V528.378a408.743,408.743,0,0,0,43.307-.52h.251q10.329-.659,20.562-1.875h.155a380.649,380.649,0,0,0,105.671-28.024m97.386-233.6c-.848-1.956-1.726-3.911-2.619-5.86-1.668-3.662-3.423-7.222-5.238-10.775H795.919V349.035h44.2C840.119,320.337,832.741,291.039,821.262,264.355ZM795.919,352.17V452.517a143.667,143.667,0,0,0,30.544-40.9c9.112-18.67,13.28-38.872,13.627-59.454Zm0-133.982v26.369h15.847A284.408,284.408,0,0,0,795.919,218.188ZM643.938,99.09c-1.166-.447-2.339-.894-3.512-1.318a319.333,319.333,0,0,0-37.848-11.295L559.507,133.4h0l-.841.9.553.593H712.514a327.808,327.808,0,0,0-68.576-35.8Zm73.04,38.93H557.072l-3.143,2.849V244.579h224.1V194.332a318.132,318.132,0,0,0-61.014-56.312Z" transform="translate(-35.022 0.017)"/><path class="a" d="M75.863,261.83v52.338H2.42c0-.3.044-.617.073-.922.065-.835.131-1.663.2-2.5.073-.973.167-1.946.261-2.9s.189-2.12.3-3.173.211-2.12.327-3.173.232-2.105.363-3.151.247-2.105.392-3.151c.109-.864.218-1.735.341-2.606.167-1.227.341-2.454.523-3.674a3.491,3.491,0,0,1,.087-.552,253.369,253.369,0,0,1,5.4-26.514Z" transform="translate(-0.663 -69.85)"/><path class="a" d="M1.525,338.2H75.2V438.628H6.912c-.174,1.038-.348,2.069-.545,3.107H75.2v80.979a1.041,1.041,0,0,1-.341-.131c-1.938-.769-3.87-1.59-5.808-2.447-.414-.189-.82-.385-1.241-.566-1.938-.915-3.87-1.888-5.808-2.9-.675-.356-1.35-.726-2.011-1.1a120.967,120.967,0,0,1-28.968-22.55c-.254-.24-.486-.5-.726-.726-1.176-1.278-2.33-2.57-3.449-3.891-.421-.486-.828-.98-1.241-1.452-1.321-1.612-2.6-3.282-3.833-4.959-.189-.254-.363-.5-.545-.726A107.447,107.447,0,0,1,8.712,458.681c-.1-.24-.2-.5-.29-.726-1-2.541-1.909-5.082-2.693-7.746-.334-1.1-.661-2.178-.937-3.318-.1-.327-.182-.661-.269-.987C.472,429.822,0,413.109,0,396.477v-5.808Q.087,380.5.24,370.34q.058-2.614.109-5.249.152-6.672.436-13.373c.044-1.234.1-2.476.167-3.7q.044-1.067.109-2.135Q1.256,342,1.525,338.2Z" transform="translate(0 -89.283)"/><path class="a" d="M183.212,197.717v90.489h-55.4V197.717h7.9V167.08h32.423v30.637Z" transform="translate(-35.019 -44.364)"/><rect class="a" width="55.394" height="100.428" transform="translate(92.791 248.241)"/><path class="a" d="M127.82,480.81h55.394V564.3a143.507,143.507,0,0,1-19.929,4.233c-.552.08-1.1.145-1.648.2-.813.094-1.619.181-2.425.254l-2.432.2h-.247l-1.074.058h-.37c-.436,0-.864.051-1.3.058h-.036c-.624,0-1.241.044-1.866.058h-5.14a11.449,11.449,0,0,1-1.408-.058q-1.125-.044-2.265-.131h0l-1.4-.1c-.581-.043-1.162-.1-1.735-.16-1.22-.109-2.432-.247-3.63-.414l-1.452-.2-.726-.1c-1.212-.181-2.418-.385-3.63-.617-.9-.16-1.786-.341-2.679-.53Z" transform="translate(-35.022 -127.992)"/><rect class="a" width="45.68" height="101.169" transform="translate(455.641 142.82)"/><path class="a" d="M595.569,338.19V438.626H368.83V395.3H489.6V420.86h60.28V338.19Z" transform="translate(-95.691 -89.949)"/><path class="a" d="M596.288,587.975a4.094,4.094,0,0,1-.726-.044v65.885q-12.27-1.016-24.466-2.824a400.452,400.452,0,0,1-106.04-30.855q-14.615-6.6-28.634-14.368A366.179,366.179,0,0,1,391.677,576.5q-5.358-4.095-10.556-8.371c-2.4-1.989-4.784-4.022-7.209-5.99-1.67-1.358-3.361-2.7-5.082-3.978V480.287H549.286c-.131-.465-.247-.922-.378-1.387.138.465.269.922.385,1.387h46.276V587.924C595.809,587.932,596.048,587.953,596.288,587.975Z" transform="translate(-95.684 -126.544)"/><path class="a" d="M834.006,170.291H804.24v-9.249h13.337V133.49q1.735.632,3.456,1.307v26.245H834Z" transform="translate(-211.673 -35.636)"/><path class="a" d="M878.619,294.059H705.38V192.89h7.71v74.779h35.066V223.383H777.2V188.44h29.766V223.4h28.989v44.286h42.667Z" transform="translate(-181.908 -50.096)"/><path class="a" d="M705.38,338.2V438.628h173.24V338.2ZM925.657,556.837l.247-79.5H878.619V441.765H705.38V616.391A399.314,399.314,0,0,0,748,615.876h.247q10.164-.654,20.234-1.859h.153A372.432,372.432,0,0,0,872.615,586.24" transform="translate(-181.908 -87.993)"/><path class="a" d="M1036.429,480.81h40.417c-.348,20.393-4.443,40.424-13.409,58.923a142.265,142.265,0,0,1-30.057,40.548V516.392h3.049Z" transform="translate(-271.778 -127.067)"/><path class="a" d="M1078.026,444.854H1037.58V360.92h21.889C1070.788,387.368,1077.99,416.409,1078.026,444.854Z" transform="translate(-272.929 -96.103)"/><rect class="a" width="24.474" height="31.719" transform="translate(476.981 170.993)"/><rect class="a" width="24.474" height="7.304" transform="translate(476.981 237.257)"/><rect class="a" width="24.474" height="21.308" transform="translate(476.981 247.816)"/><rect class="a" width="24.474" height="31.719" transform="translate(476.981 303.731)"/><rect class="a" width="24.474" height="31.719" transform="translate(476.981 370.101)"/><path class="a" d="M671.9,619.883a3.53,3.53,0,0,1,.726.051,4.1,4.1,0,0,1-.726-.044v7.369H647.43V595.54H671.9Z" transform="translate(-170.443 -158.502)"/><path class="a" d="M671.9,686.09v24.5q-12.284-1.017-24.474-2.824V686.09Z" transform="translate(-170.449 -183.313)"/><rect class="a" width="104.886" height="2.33" transform="translate(272.19 346.715)"/><rect class="a" width="104.886" height="8.93" transform="translate(272.19 352.234)"/><rect class="a" width="104.886" height="14.36" transform="translate(272.19 390.819)"/><path class="a" d="M475.634,593.52v14.36H393.6q-5.358-4.08-10.556-8.378c-2.41-1.982-4.792-4.015-7.209-5.982Z" transform="translate(-98.508 -157.949)"/><path class="a" d="M499.225,653.61v14.4h-8.661q-14.615-6.6-28.634-14.368Z" transform="translate(-121.529 -174.413)"/><rect class="a" width="20.648" height="20.648" transform="translate(562.88 257.639)"/><rect class="a" width="20.648" height="20.648" transform="translate(107.667 160.545)"/><rect class="a" width="20.648" height="20.648" transform="translate(107.667 208.949)"/><rect class="a" width="20.648" height="20.648" transform="translate(107.667 257.353)"/><rect class="a" width="20.648" height="20.648" transform="translate(107.667 305.75)"/><rect class="a" width="20.648" height="20.648" transform="translate(107.667 354.154)"/><rect class="a" width="20.648" height="20.648" transform="translate(107.667 402.557)"/><rect class="a" width="20.648" height="20.648" transform="translate(642.86 257.639)"/><rect class="a" width="20.648" height="20.648" transform="translate(562.88 309.04)"/><rect class="a" width="20.648" height="20.648" transform="translate(642.86 309.04)"/><rect class="a" width="20.648" height="20.648" transform="translate(562.88 360.433)"/><rect class="a" width="20.648" height="20.648" transform="translate(642.86 360.433)"/><rect class="a" width="20.648" height="20.648" transform="translate(562.88 411.834)"/><rect class="a" width="20.648" height="20.648" transform="translate(642.86 411.834)"/><rect class="a" width="20.648" height="20.648" transform="translate(562.88 463.646)"/><rect class="a" width="20.648" height="20.648" transform="translate(642.86 463.646)"/><path class="a" d="M764.08,715.645V702.33h20.64v11.42Z" transform="translate(-201.201 -187.762)"/><path class="a" d="M6.26,298.35v11.812H76.915V298.35Zm7.071,11.072H7.523V299.1h5.808Zm7.035,0H14.558V299.1h5.808Zm7.02,0H21.579V299.1h5.808Zm7.035,0H28.577V299.1h5.808Zm7.028,0H35.641V299.1H41.45Zm7.035,0H42.676V299.1h5.808Zm7.035,0H49.711V299.1H55.52Zm7.028,0H56.739V299.1h5.808Zm7.028,0H63.767V299.1h5.808Zm7.035,0H70.8V299.1H76.61Z" transform="translate(-1.715 -79.763)"/><path class="a" d="M6.26,345.71v11.827H76.915V345.71Zm7.071,11.1H7.523V346.458h5.808Zm7.035,0H14.558V346.458h5.808Zm7.02,0H21.579V346.458h5.808Zm7,0H28.577V346.458h5.808Zm7.028,0H35.605V346.458h5.808Zm7.035,0H42.64V346.458h5.808Zm7.035,0H49.675V346.458h5.808Zm7.028,0H56.7V346.458h5.808Zm7.028,0H63.731V346.458h5.808Zm7.035,0H70.766V346.458h5.808Z" transform="translate(-1.715 -92.427)"/><path class="a" d="M6.26,393.08v11.8H76.915v-11.8Zm7.071,11.057H7.523V393.813h5.808Zm7.035,0H14.558V393.813h5.808Zm7.02,0H21.579V393.813h5.808Zm7.035,0H28.577V393.813h5.808Zm7.028,0H35.641V393.813H41.45Zm7.035,0H42.676V393.813h5.808Zm7.035,0H49.711V393.813H55.52Zm7.028,0H56.739V393.813h5.808Zm7.028,0H63.767V393.813h5.808Zm7.035,0H70.8V393.813H76.61Z" transform="translate(-1.715 -105.093)"/><path class="a" d="M6.26,440.44v11.8H76.915v-11.8ZM13.331,451.5H7.523V441.166h5.808Zm7.035,0H14.558V441.166h5.808Zm7.02,0H21.579V441.166h5.808Zm7.035,0H28.577V441.166h5.808Zm7.028,0H35.641V441.166H41.45Zm7.035,0H42.676V441.166h5.808Zm7.035,0H49.711V441.166H55.52Zm7.028,0H56.739V441.166h5.808Zm7.028,0H63.767V441.166h5.808Zm7.035,0H70.8V441.166H76.61Z" transform="translate(-1.715 -117.757)"/><path class="a" d="M6.73,487.78c.276,1.118.6,2.222.937,3.318v-2.57h5.808v10.3H10.36c.087.247.182.5.283.726h66.43V487.78Zm13.794,11.064H14.716V488.528h5.808Zm7.02,0H21.737V488.528h5.808Zm7.035,0H28.772V488.528H34.58Zm7.028,0H35.8V488.528h5.808Zm7.035,0H42.834V488.528h5.808Zm7.035,0H49.869V488.528h5.808Zm7.028,0H56.9V488.528h5.808Zm7.028,0H63.925V488.528h5.808Zm7.035,0H70.96V488.528h5.808Z" transform="translate(-1.844 -130.415)"/><path class="a" d="M29.27,535.14c.189.232.363.494.545.726h3.841v4.98l1.227,1.452v-6.462H40.69v10.411H38.316c.232.24.457.494.726.726H83.2V535.14Zm18.484,11.108H41.946V535.881h5.808Zm7.035,0H48.981V535.881h5.808Zm7.035,0H56.016V535.881h5.808Zm7.028,0H63.044V535.881h5.808Zm7.028,0H70.072V535.881H75.88Zm7.035,0H77.107V535.881h5.808Z" transform="translate(-8.02 -143.078)"/><path class="a" d="M82.66,582.5c.668.378,1.343.726,2.018,1.1v-.363h5.808v3.26c.421.181.82.378,1.234.566v-3.84h5.808v6.287a2.708,2.708,0,0,0,.341.123V582.5Z" transform="translate(-22.648 -154.929)"/><path class="a" d="M532.516,507.167Zm-46.66-109.024c.138.465.261.929.385,1.387h0C486.131,399.072,486,398.608,485.855,398.143ZM138.73,184.175v3.093h32.431V184.16ZM532.523,507.167ZM485.855,398.143c.138.465.261.929.385,1.387h0C486.131,399.072,486,398.608,485.855,398.143ZM532.516,507.167Zm-46.66-109.024c.138.465.261.929.385,1.387h0C486.131,399.072,486,398.608,485.855,398.143Z" transform="translate(-38.011 -45.787)"/></g></g><g transform="translate(885.768 204.294)"><g transform="translate(0)"><path class="b" d="M474.188,636.934c0,6.035-106,10.923-236.774,10.923S.64,642.969.64,636.934,106.676,626,237.414,626,474.188,630.911,474.188,636.934Z" transform="translate(-6.038 -78.072)"/><path class="c" d="M303.977,119.37a153.716,153.716,0,0,0-18.554,15.762c-9.395,9.395-18.554,88.905-18.554,88.905l18.419,4.993Z" transform="translate(50.242 -14.078)"/><path class="d" d="M301.509,277.3l-44.672,12.372L232.22,200.828l46.114-7.168Z" transform="translate(55.018 -23.068)"/><path class="e" d="M305.5,273.873l-44.672,12.38L236.21,197.4l46.114-7.168Z" transform="translate(54.694 -22.659)"/><rect class="f" width="46.359" height="92.194" transform="translate(285.476 181.744) rotate(-15.49)"/><path class="g" d="M159.043,243.029c-16.158,2.808-35.37-7.759-35.37-7.759s-10.188,17.246-5.153,22.281c3.854,3.854,24.406,1.13,40.995-1.973a127.929,127.929,0,0,0,.843-12.8Z" transform="translate(63.675 -29.242)"/><path class="h" d="M85.2,254.64a5.836,5.836,0,0,1,.211,1.181c0,5-14.337,24.364-20.611,48.728s2.808,118.684,2.808,118.684S57.3,444.156,57.3,457.591s8.9,90.423,8.9,90.423L61.517,554.1a57.243,57.243,0,0,1,6.747,7.185c1.6,2.3,12.583,12.313,12.65,10.289.051-1.771-8.686-16.361-9.049-21.691-.253-3.7,2.53-99.321,10.306-111.195s9.842-40.135,9.842-49.816c0-8.872,22.129-112.814,25.848-130.212Z" transform="translate(64.937 -19.896)"/><path class="i" d="M108.932,256l6.089.312s4.377,22.18,4.377,34.046-10.466,138.367-10.466,138.367S48.962,536.167,47.714,544.263s-3.744,12.178-3.744,17.179V565.5s3.626,4.571,1.29,4.571-6.73-7.936-6.73-7.936,1.687-3.18,0-9.429S36,541.742,36,541.742s2.648.084,6.089-3.373,8.745-54.345,18.427-75.9,26.236-39.038,28.733-39.038c0,0-7.809-87.455-7.809-90.887S108.932,256,108.932,256Z" transform="translate(68.274 -20.109)"/><path class="j" d="M64.91,410.15c1.164,18.334,3.888,37.444,3.888,37.444h45.1s1.5-13.494,3.373-32.266Z" transform="translate(63.745 -50.631)"/><path d="M35.47,594.788s-1.526-.649-3.272,2.142-5.558,18.182-5.558,18.182l1.164.557s5.617-12.928,7.59-9.985-.278,11.2-.278,11.2a29.421,29.421,0,0,0,9.479,9.353c6.747,4.352-.464-6.8-.464-6.8l-5.954-5.456s1.417-10.247.506-14.337S35.47,594.788,35.47,594.788Z" transform="translate(69.74 -73.172)"/><path d="M63.513,607.523s-1.687.177-1.813,3.466,4.023,18.554,4.023,18.554l1.29-.084s-1.4-13.949,1.771-12.4,5.195,11.731,5.195,11.731a79.047,79.047,0,0,0,12.827,1.687c8.012.506-3.719-5.7-3.719-5.7l-7.86-1.855s-3.761-9.631-6.527-12.785S63.513,607.523,63.513,607.523Z" transform="translate(64.248 -75.172)"/><path class="k" d="M121.651,259.415c-4.529-14.683,2.53-71.524.843-84.958s-18.368-34.24-25.832-36.07S75.849,136,74.272,136s-21.606,14.092-23.479,15.315c-2.817,1.838,9.707,31.33,9.707,31.33L82.807,237.2s-17.381,34.046-20.653,50.44c-2.066,10.331-9.9,65.368-7.944,96.3h65.266C123.431,344.306,124.721,269.375,121.651,259.415Z" transform="translate(66.021 -13.589)"/><path class="l" d="M98.557,133.914c-6.966-1.687-16.42,1.763-19.287,1.687l38.566,33.127S99.586,134.124,98.557,133.914Z" transform="translate(66.906 -16.492)"/><path class="i" d="M48.707,150.86S62.2,159.6,59,174.6s-39.637,42.167-36.264,52.625c2.631,8.012,21.084,26.279,30.807,34.273,2.977,2.454,5.389,3.677,5.9,3.677,2.3,0,5.431,2.808,12.65-.784s8.661-2.884,6.553-.776-8.779,3.787-7.413,5.153,8.821.784,13.814-4.217,5.237-.548,2.53,2.184-13.122,6.4-13.122,6.4,13.4-4.681,15.931-7.177,4.529,1.248,0,4.217-15.931,7.177-24.988,7.177S54.13,272.2,45.418,268.608,6.38,247.254,6.38,226.306,39.852,151.492,48.707,150.86Z" transform="translate(72.914 -17.557)"/><path class="m" d="M21.775,227.223c-3.432-10.466,36.045-37.571,38.988-52.633,3.449-17.609-13.055-23.74-13.055-23.74-8.847.633-45.81,52.819-47.632,73.683C-2.1,249.378,44.419,273.447,45.229,273.9l7.649-12.7C43.18,253.215,24.407,235.235,21.775,227.223Z" transform="translate(73.913 -17.606)"/><path class="n" d="M51.538,150.86c12.751,6.089,16.024,19.279,9.977,28.944C51.5,195.633,22.071,217,24.6,227.031c1.467,7.818,23.015,27.08,32.106,34.2-5.3-4.79-29.374-27.611-30.259-34.577-2.53-9.749,36.854-35.42,39.2-54.7C66.237,161.326,59.912,154.048,51.538,150.86Z" transform="translate(70.083 -17.783)"/><rect class="o" width="41.029" height="59.414" transform="translate(233.508 169.687) rotate(25)"/><rect class="p" width="53.021" height="34.636" transform="translate(266.51 188.607) rotate(115)"/><path class="q" d="M187.163,200.79c-.076.4-3.07,4.52.607,6.241,11.309,5.17,11.883,6.021,13.687,5.355s1.948-2.285,2.741-3.652Zm.945,5.515c-2.7-1.257-.616-4.132-.557-4.453l15.585,7.261c-2.589,4.419-1.206,3.331-15.028-2.808Z" transform="translate(56.739 -25.107)"/><path class="r" d="M202.012,201.534a4.487,4.487,0,0,0-2.269-5.743h0a4.5,4.5,0,0,0-5.861,1.948l-6.84-3.179-2.193,4.706,20.89,9.741,2.193-4.714Z" transform="translate(57.006 -24.298)"/><path class="i" d="M203.845,239.5s-7.674-2.336-8.973-.135,7.826,5.313,7.826,5.313-11.385-3.888-10.576-2.159,7.641,6.224,7.641,6.224-8.745-5.515-8.965-4.124,4.63,5.338,7.388,7.008-5.06-3.424-5.246-2.176,5.3,6.527,7.286,6.839,1.83-2.269,3.475-3.458,1.687-2.758,2.437-4.478,2.21-6.747,1.569-7.674S203.845,239.5,203.845,239.5Z" transform="translate(56.249 -29.725)"/><path class="s" d="M191.849,363.85h-.169A.194.194,0,0,0,191.849,363.85Z" transform="translate(55.602 -45.745)"/><path class="t" d="M380.465,393.738,268.73,397.027,284.054,278.47l61.412,1.661Z" transform="translate(58.447 -32.617)"/><path class="u" d="M329.54,359.024s-22.812,188.5-27.83,208.559l-.32,12.743-34.459-.936s2.193-4.217,6.089-4.082,13.848-4.217,16.622-7.346S294.7,303.54,294.7,303.54l42.791,1.164Z" transform="translate(52.28 -27.557)"/><path class="c" d="M350.8,110.55l-3.82,12.971-38.456-3.458,9.066-7.986Z" transform="translate(46.881 -17.318)"/><path class="j" d="M307.516,319.97l5.212,30.487s43.7,165.565,40.135,222.913c0,0-4.217,6.7-18.554,10.339-.767.194-1.569,2.842-1.569,2.842l37.107,1.012-1.8-11.613s3.8-195.352,4.394-218.1-4.655-52.507-4.655-52.507L305.5,303.66Z" transform="translate(52.687 -27.576)"/><path class="k" d="M277.316,232.368c1.434-55.931,19.861-111.1,32.755-117.832,0,0,14.809-.582,22.425-.616,11.351-.059,28.674,5.9,37.3,37.023,7.852,28.3,3.087,113.582.7,155.352-32.047-.843-55.458-2.53-86.561-3.373C283.709,293.147,276.861,249.943,277.316,232.368Z" transform="translate(57.105 -12.401)"/><path class="v" d="M330.3,181.533c-.11.843,20.586-65.283,20.586-65.283A73.143,73.143,0,0,1,365.54,124.1c8.324,5.608,19.076,43.07,19.076,43.07s-5.127,87.784-5.3,94.454c-.093,3.6,4.613,57.567,8.99,106.691l-69.5,4.436C321.6,304.484,332.843,162.516,330.3,181.533Z" transform="translate(50.602 -11.42)"/><path class="w" d="M307.693,114.63s-23.951,8.5-30.79,69.837S266.85,371.319,266.85,371.319l23.968.649S298,192.724,298.324,180.436,307.693,114.63,307.693,114.63Z" transform="translate(50.451 -11.241)"/><path class="x" d="M332.44,180.64l22.1-70.09,11.436,9.024-14.86,24.971.852,7.97Z" transform="translate(48.467 -13.395)"/><path class="x" d="M316.464,112.36,303.8,178.52,301.36,142.7l3.424-3.778.9-21.134Z" transform="translate(45.905 -13.647)"/><path class="i" d="M318.87,89.121l2.64,27.189c.548,5.591,4.571,9.682,9.209,9.437,1.172-.059,2.4-.177,3.635-.363,6.241-.936,12.043-6.2,10.77-13.586-1.611-9.521-5.3-25.351-5.229-33.734C340.063,64.385,318.87,82.146,318.87,89.121Z" transform="translate(44.952 -11.44)"/><path class="h" d="M339.911,78.065c.11-13.671-21.041,4.09-21.041,11.065l1.56,15.922a52.129,52.129,0,0,0,10.845-2.977c5.659-2.344,6.021-9.445,9.361-11.453a3.371,3.371,0,0,0,.523-.388,78.8,78.8,0,0,1-1.248-12.169Z" transform="translate(44.7 -11.441)"/><path class="f" d="M286.336,38.73c6.131,3.846,18.132,9.42,22.593,3.787-3.981,6.452-17.221,2.2-24.179-1.029Z" transform="translate(47.928 -6.067)"/><path class="h" d="M306.409,58.69s-7.539-5.566-6.266-.683,5.06,15.357,9.007,11.225S306.409,58.69,306.409,58.69Z" transform="translate(45.78 -8.773)"/><path class="i" d="M322.651,31.09c-1.02,1.012-12.212.211-15.872,11.7s.548,37.782,7.666,44.841,15.256,2.614,21.564-9.277,18.554-27.173,9.555-38.49C340.783,33.848,322.651,31.09,322.651,31.09Z" transform="translate(47.22 -4.87)"/><path class="f" d="M310.161,85.237s3.314,7.674.051,10.963,9.429,4.453,13.679,3.314,10.12-1.855,11.4-3.55c2.7-3.584,1.493-22.374,1.493-22.374h0c-2.378,6.173-9.125,17.086-11.512,17.086s-5.448.616-7.894.616S310.161,85.237,310.161,85.237Z" transform="translate(45.843 -11.528)"/><path class="f" d="M317.587,33c-1.02,6.038-7.067,14.337-21.514,5.271s-11.6-20.578-11.6-20.578,7.329,9.471,11.807,7.455,1.248-13.274,1.248-13.274,16.276-1.214,19.321-1.214,6.156,9.479,6.156,9.479-2.083-4.217,13.983-5.65,6.654,22.467,8.484,30.731-9.15,22.88-9.15,27.721a12.743,12.743,0,0,0,2.64,7.86s-3.458.843-6.511-7.658,2.53-20.957,2.53-27.4c0-7.835-3.7-10.651-6.991-13.072C325.574,30.867,318.616,26.97,317.587,33Z" transform="translate(50.297 -1.67)"/><path class="i" d="M343.265,60.553s-5.9,10.744-1.687,9.909,12.33-6.367,10.516-14.033S343.265,60.553,343.265,60.553Z" transform="translate(42.137 -8.434)"/><path class="h" d="M343.569,61.343s3.626-3.373,4.832-2.218c2.825,2.791-6.4,10.82-6.4,8.653S343.569,61.343,343.569,61.343Z" transform="translate(41.634 -9.225)"/><path class="y" d="M325.715,58.289c0,1.645-.978,2.977-2.193,2.977s-2.193-1.332-2.193-2.977.987-2.969,2.193-2.969S325.715,56.652,325.715,58.289Z" transform="translate(43.445 -8.666)"/><ellipse class="y" cx="2.193" cy="2.977" rx="2.193" ry="2.977" transform="translate(351.052 46.645)"/><path class="y" d="M322.815,84.822a9.656,9.656,0,0,0,3.922-3.871c.363-.607,1.324-.051.911.531a10.348,10.348,0,0,1-4.554,3.812c-2.825,1.24-5.9,1.172-5.9,1a.059.059,0,0,1,.067-.059A12.65,12.65,0,0,0,322.815,84.822Z" transform="translate(44.176 -12.64)"/><path class="y" d="M323.806,46.683l-.666,1.9a5.237,5.237,0,0,1,5.465,1.585S326.471,46.236,323.806,46.683Z" transform="translate(43.333 -7.308)"/><path class="y" d="M306.17,51.092s2.353-1.518,3.964-1.518l-.843-1.434S306.17,49.447,306.17,51.092Z" transform="translate(44.86 -7.541)"/><path class="f" d="M305.582,52.45h-6.865a4.149,4.149,0,0,0-4,4.284v5.111a4.149,4.149,0,0,0,4,4.284h6.865a4.149,4.149,0,0,0,4-4.284V56.734A4.149,4.149,0,0,0,305.582,52.45Zm2.151,9.395a2.226,2.226,0,0,1-2.151,2.3h-6.865a2.226,2.226,0,0,1-2.15-2.3V56.734a2.226,2.226,0,0,1,2.151-2.3h6.865a2.226,2.226,0,0,1,2.151,2.3Z" transform="translate(46.509 -8.217)"/><path class="f" d="M330.05,52.26h-7.986a4.529,4.529,0,0,0-4.664,4.385v5.229a4.529,4.529,0,0,0,4.664,4.385h7.986a4.537,4.537,0,0,0,4.664-4.385V56.645a4.537,4.537,0,0,0-4.664-4.385Zm2.53,9.614a2.446,2.446,0,0,1-2.53,2.361h-7.986a2.437,2.437,0,0,1-2.53-2.361V56.645a2.437,2.437,0,0,1,2.53-2.361h7.986a2.446,2.446,0,0,1,2.53,2.361Z" transform="translate(44.542 -8.186)"/><path class="y" d="M312.794,75.076c0-.1-2.943-8.433.759-21.455.185-.641,1.223-.388,1.046.261,0,.118-3.222,11.545-1.029,20,3.163-.472,4.326-1.265,4.529-.4S316.859,74.072,312.794,75.076Z" transform="translate(44.468 -8.342)"/><rect class="f" width="5.549" height="1.855" transform="translate(355.857 48.72)"/><path class="f" d="M315.46,0c4.816.177,9.724,2.151,11.984,6.207,2.016,3.6,1.611,6.831,1.5,9.327l-.548,3.019-1.063-.16a26.989,26.989,0,0,0,0-5.819c-.97-6.494-5.6-9.361-11.857-8.939Z" transform="translate(44.509)"/><path class="i" d="M250.8,268.274a23.522,23.522,0,0,0-4.689,2.53c-3.146,2.016-1.746,6.789-1.5,7.767a32.65,32.65,0,0,0,2.53,6.3,12.356,12.356,0,0,0,2.665,3.593c1.687,1.577,10.964-2.589,10.829-3.593-.11-.675-.371-1.307-.928-1.451s-7.337.658-7.337.658,7.413-2.716,8.029-4.6-.5-2.252-1.172-2.075-8.762,1.645-8.762,1.645,7.194-3.921,7.59-5.153-.641-2.859-4.217-1.324a27.828,27.828,0,0,1-4.917,1.408s4.217-3.255,4.816-5.1S250.8,268.274,250.8,268.274Z" transform="translate(51.291 -33.347)"/><path class="w" d="M370.965,155.258,369.54,123c30.158,15.914,54.817,77.588,55.939,95.526.717,11.849-21.994,42.412-37.436,59.186-2.53-3.955-5.659-11.014-9.766-12.836,7.312-10.188,16.867-25.418,19.776-39.156,2.9-13.493-6.418-28.429-14.742-38.532A54.033,54.033,0,0,1,370.965,155.258Z" transform="translate(42.655 -13.957)"/><path class="i" d="M384.124,301.83l-7.548,15.256-24.086-.641s22.121-23.4,25.039-26.144S388.931,297.292,384.124,301.83Z" transform="translate(45.326 -35.967)"/><path class="x" d="M378.709,370.125l-30.369.945V320.03h30.487Z" transform="translate(45.976 -39.214)"/><path class="w" d="M379.9,289.846c4.107,1.822,7.27,8.88,9.766,12.836,2.353-2.53,4.875-5.431,7.455-8.509L385.129,282.18C383.358,284.946,381.561,287.527,379.9,289.846Z" transform="translate(41.032 -35.137)"/><path class="i" d="M74.15,98.83s2.184,32.325,6.089,37.95,17.491,3.12,18.554,0-7.9-35.606-7.9-35.606Z" transform="translate(67.154 -12.175)"/><path class="h" d="M93.479,110.89c-1.451-5.524-2.589-9.715-2.589-9.715L74.15,98.83s9.192,9.277,11.984,10.5a17.137,17.137,0,0,0,7.346,1.56Z" transform="translate(67.079 -15.482)"/><path class="y" d="M61.933,51.2s3.281-9.37-2.184-13.274S43.506,36.053,41.01,48.045s-.43,20.021,9.159,16.6S61.933,51.2,61.933,51.2Z" transform="translate(67.641 -5.659)"/><path class="i" d="M88.066,48.087s6.747-.7,8.9,8.433S98.49,71.515,99.772,72.8a16.024,16.024,0,0,0,4.107,2.463,3.8,3.8,0,0,1-1.687,2.581,3.846,3.846,0,0,0-1.83,3.061c0,.523,1.113.523,1.113,1.459s-1.349,2.53-1.349,2.53a3.213,3.213,0,0,1,1,1.872c0,.936-1.577,2.226-1.577,2.226s-.236,3.373-.236,5.271-6.8,6.443-16.024,2.69S48.008,87.556,58.077,67.18,88.066,48.087,88.066,48.087Z" transform="translate(65.172 -7.531)"/><path class="q" d="M74.591,80.561c.472.464-6,4.217-3.787,11.63s-9.766,2.269-13.924-3.508-6.966-19.338-2.749-26.144,4.377-5.06,8.433-10.71,25.3-8.543,29.374-2.808S88.911,63.357,81.617,67.135,74.591,80.561,74.591,80.561Z" transform="translate(65.76 -7.19)"/><path class="y" d="M93,47.846c.624,0,13.426-4.512,12.026,3.922S95.031,67.032,84.4,69.216s-15.585,5.347-9.37,9.412c0,0-7.185-.784-7.185-4.529s9.159-8.121,13.873-10.466S92.147,48.108,92.147,48.108Z" transform="translate(67.897 -7.307)"/><path class="i" d="M83.682,80.477s-.472-8.433-5.153-6.873-1.687,14.059,2.53,14.059S83.682,80.477,83.682,80.477Z" transform="translate(61.983 -11.5)"/><path class="h" d="M81.8,79.717s-.708-4.765-2.657-3.753-1.636,10.12.843,9.606S81.8,79.717,81.8,79.717Z" transform="translate(61.713 -11.878)"/><path class="y" d="M103.77,91.383a5.65,5.65,0,0,0,3.812.261,5.828,5.828,0,0,1-4.031.16.236.236,0,0,1-.143-.3.228.228,0,0,1,.3-.152h0Z" transform="translate(58.37 -14.31)"/><path class="y" d="M104.7,74.71a1.779,1.779,0,0,1,1.1,1.484,2.007,2.007,0,0,1-1.1,1.585Z" transform="translate(58.193 -11.704)"/><path class="z" d="M100.74,77.088s1.729-2.176,2.876-3.323,4.411-1.585,4.411-1.585Z" transform="translate(58.675 -11.307)"/><path class="z" d="M99.45,70.884s2.42-2.581,4.36-3.044.843,2.049.843,2.049S105.134,68.3,99.45,70.884Z" transform="translate(58.766 -10.619)"/><path class="g" d="M102,133.37l3.6,24.465,16.783,11.706-5.414-24.01h-5.853v-9.994Z" transform="translate(64.532 -16.475)"/><path class="m" d="M75.549,134.52l40.287,35.2-30.546-6.14,2.724-8.315L60.2,141.545Z" transform="translate(64.483 -16.626)"/><path class="m" d="M124.15,174.54l3.12,215.441h1.442l-2.859-213.99Z" transform="translate(62.145 -18.416)"/><rect class="m" width="31.01" height="42.926" transform="translate(140.002 280.763)"/></g></g><g transform="translate(827.125 572.011)"><g transform="translate(-8.51 -16.13)"><line class="aa" y2="93.221" transform="translate(89.395 10.236)"/><path class="ab" d="M182.529,213.042l-.264,4.2-.362,5.944-.155,2.466-.367,5.944-.146,2.471-.362,5.944-4.179,67.4A11.412,11.412,0,0,1,165.3,318.122H143.587a11.4,11.4,0,0,1-11.393-10.758l-4.184-67.4-.362-5.944-.151-2.471-.376-5.939-.155-2.471-.362-5.92-.264-4.2a5.944,5.944,0,0,1,5.6-6.268h44.7a5.944,5.944,0,0,1,5.906,5.977C182.538,212.811,182.534,212.929,182.529,213.042Z" transform="translate(-67.109 -109.863)"/><path class="ac" d="M182.567,229.03l-.372,5.93H127.267l-.367-5.93Z" transform="translate(-67.411 -121.658)"/><path class="ac" d="M182.633,246.88l-.362,5.93H128.377l-.367-5.93Z" transform="translate(-67.999 -131.108)"/><path class="ac" d="M182.7,264.74l-.362,5.925H129.487l-.367-5.925Z" transform="translate(-68.587 -140.563)"/><path class="ad" d="M53.687,76.154C77.8,93.6,87.843,120.885,87.843,120.885s-29.055-1-53.178-18.443S.49,57.73.49,57.73,29.545,58.709,53.687,76.154Z" transform="translate(-0.49 -30.972)"/><path class="ae" d="M.49,57.73S30.646,74.469,40.322,88.319s47.5,32.6,47.5,32.6" transform="translate(-0.49 -30.972)"/><path class="ad" d="M113.961,10.908c13.13,9.492,18.6,24.339,18.6,24.339s-15.85-.541-28.942-10.028S85,.87,85,.87,100.84,1.4,113.961,10.908Z" transform="translate(-45.23 -0.87)"/><path class="ae" d="M85,.87s16.415,9.116,21.685,16.655S132.54,35.247,132.54,35.247" transform="translate(-45.23 -0.87)"/><path class="ad" d="M206.034,47.8C190.975,64.368,187.77,86.02,187.77,86.02s21.257-5.214,36.316-21.789S242.355,26,242.355,26,221.112,31.233,206.034,47.8Z" transform="translate(-99.636 -14.174)"/><path class="ae" d="M242.364,26s-19.638,16.984-24.627,28.707S187.77,86.025,187.77,86.025" transform="translate(-99.636 -14.174)"/></g></g></g></svg>