<?xml version="1.0" encoding="utf-8"?>
<!-- Generator: Adobe Illustrator 24.2.0, SVG Export Plug-In . SVG Version: 6.00 Build 0)  -->
<svg version="1.1" id="Logo" xmlns="http://www.w3.org/2000/svg" xmlns:xlink="http://www.w3.org/1999/xlink" x="0px" y="0px"
	 viewBox="0 0 600 180" style="enable-background:new 0 0 600 180;" xml:space="preserve">
<style type="text/css">
	.st0{fill:url(#SVGID_1_);}
	.st1{fill:url(#SVGID_2_);}
	.st2{fill:url(#SVGID_3_);}
	.st3{fill:url(#Caminho_122_1_);}
	.st4{fill:url(#Caminho_123_1_);}
	.st5{fill:url(#Caminho_124_1_);}
	.st6{fill:#FFFFFF;}
</style>
<g>
	
		<linearGradient id="SVGID_1_" gradientUnits="userSpaceOnUse" x1="105.537" y1="87.1699" x2="48.668" y2="-11.3302" gradientTransform="matrix(1 0 0 -1 0 182)">
		<stop  offset="0" style="stop-color:#7257EF"/>
		<stop  offset="0.3916" style="stop-color:#674AF2"/>
		<stop  offset="1" style="stop-color:#502EF7"/>
	</linearGradient>
	<path class="st0" d="M146.1,126.8c1.7,2.3,1.5,5.6-0.6,7.6c-11.9,10.7-24.5,20.5-37.6,29.5c-0.8,0.6-1.8,0.9-2.8,0.9
		s-2-0.3-2.8-0.9c-1.4-0.9-18.4-12.2-35.9-27.8c-10.7-9.5-21.6-20.6-29.4-31.8h13.5c15.7,19.5,40.9,39,54.5,48.3
		c11.7-8.2,22.9-17.1,33.6-26.6C140.9,124,144.2,124.4,146.1,126.8z"/>
	
		<linearGradient id="SVGID_2_" gradientUnits="userSpaceOnUse" x1="89.0908" y1="175.6179" x2="-3.7162" y2="14.8715" gradientTransform="matrix(1 0 0 -1 0 182)">
		<stop  offset="0" style="stop-color:#7257EF"/>
		<stop  offset="0.3916" style="stop-color:#674AF2"/>
		<stop  offset="1" style="stop-color:#502EF7"/>
	</linearGradient>
	<path class="st1" d="M28.1,87c-0.5-1.4-0.8-2.8-1.1-4.1c0-0.1,0-0.2-0.1-0.3c-1.6-5-2.4-10.2-2.4-15.4c0-18.4,9.5-35.3,24.8-44.1
		c18.1-10.3,40.4-7.3,55.7,7.3V44c-1.3,0-2.6-0.5-3.6-1.5c-0.1-0.1-0.3-0.3-0.4-0.4C89.4,27.9,70,24,54.3,32.8
		C42.4,39.7,35,52.9,35,67.2c0,4.2,0.7,8.5,2,12.5c0,0.1,0,0.2,0.1,0.3c0.3,1.4,1.7,5.3,2.6,7"/>
	
		<linearGradient id="SVGID_3_" gradientUnits="userSpaceOnUse" x1="-737.8958" y1="175.7278" x2="-831.9789" y2="12.7709" gradientTransform="matrix(-1 0 0 -1 -617.2 182)">
		<stop  offset="0" style="stop-color:#7257EF"/>
		<stop  offset="0.3916" style="stop-color:#674AF2"/>
		<stop  offset="1" style="stop-color:#502EF7"/>
	</linearGradient>
	<path class="st2" d="M104.9,30.4V44c1.3,0,2.6-0.5,3.6-1.5c0.1-0.1,0.3-0.3,0.4-0.4c11.6-14.2,30.9-18.1,46.6-9.3
		c11.9,6.9,19.3,20.1,19.3,34.4c0,4.2-0.7,8.5-2,12.5c0,0.1,0,0.2-0.1,0.3c-0.3,1.4-0.7,2.8-1.2,4.2c-1,2.9,1.1,6,4.2,6h1.7
		c2,0,3.7-1.3,4.3-3.2c0.5-1.4,0.8-2.8,1.1-4.1c0-0.1,0-0.2,0.1-0.3c1.6-5,2.4-10.2,2.4-15.4c0-18.4-9.5-35.3-24.8-44.1
		C142.5,12.8,120.2,15.8,104.9,30.4z"/>
	
		<linearGradient id="Caminho_122_1_" gradientUnits="userSpaceOnUse" x1="-585.8646" y1="-162.8677" x2="-586.3687" y2="-159.4559" gradientTransform="matrix(102.9113 0 0 26.335 60506.2539 4355.4106)">
		<stop  offset="0" style="stop-color:#FF5A4B"/>
		<stop  offset="1" style="stop-color:#FF877A"/>
	</linearGradient>
	<path id="Caminho_122" class="st3" d="M137.4,76.6l11.2,25.6h154.2c3.1,0,5.6,2.5,5.6,5.6s-2.5,5.6-5.6,5.6l0,0H144.9
		c-2.2,0-4.2-1.3-5.1-3.3l-5.9-13.7l-7.5,31.6c-0.5,2.2-2.3,3.9-4.5,4.2c-0.3,0-0.6,0.1-0.9,0.1c-1.9,0-3.7-1-4.7-2.7l-16-26.3h-17
		c-3.1-0.1-5.5-2.6-5.5-5.7c0.1-3,2.5-5.4,5.5-5.5h20.2c1.9,0,3.7,1,4.7,2.7l10.6,17.4l8.2-34.7c0.7-3,3.7-4.8,6.7-4.1
		C135.3,73.8,136.7,75,137.4,76.6L137.4,76.6z"/>
	
		<linearGradient id="Caminho_123_1_" gradientUnits="userSpaceOnUse" x1="-577.2437" y1="-168.0265" x2="-579.09" y2="-163.2856" gradientTransform="matrix(49.9501 0 0 33.6947 29132.1836 5653.0317)">
		<stop  offset="0" style="stop-color:#7257EF"/>
		<stop  offset="0.3916" style="stop-color:#674AF2"/>
		<stop  offset="1" style="stop-color:#502EF7"/>
	</linearGradient>
	<path id="Caminho_123" class="st4" d="M223,35.9c11.3,0,19.2,4.8,23.5,14.4c1.1,2.7,1.8,5.6,1.8,8.6c0.2,2.8-0.1,5.6-1,8.2H210
		c-0.1,3.2,1.2,6.2,3.7,8.2c2.7,2.1,6.1,3.1,9.5,3c5.6,0.1,11.1-1.2,16.1-3.7l7.2,7.8c-6.6,5.3-14.8,8.2-23.3,8.3
		c-7.3,0.3-14.5-2.5-19.7-7.7c-5.1-5.3-7.8-12.4-7.6-19.7c-0.2-7.2,2.4-14.3,7.4-19.6C208.5,38.5,215.6,35.6,223,35.9z M223,48.3
		c-3.2-0.1-6.3,1-8.8,3.1c-2.1,1.8-3.5,4.4-3.6,7.2H235c0-1.5-0.4-3-1.3-4.3C231.7,50.4,227.4,48,223,48.3L223,48.3z M307.9,90.1
		h-9.1l-0.7-7.6c-4.2,5.4-10.9,8.5-17.7,8.2c-7.1,0.2-13.9-2.7-18.7-7.9c-4.9-5.3-7.6-12.3-7.4-19.5c-0.2-7.2,2.5-14.2,7.4-19.5
		c4.8-5.3,11.6-8.2,18.7-8c5.3-0.2,10.5,2,14,6V15.3H308L307.9,90.1L307.9,90.1z M281.6,77.6c3.6,0,7.1-1.4,9.6-4
		c2.8-2.7,4.3-6.4,4.2-10.3c0.1-3.9-1.4-7.6-4.2-10.3c-2.5-2.6-6-4.1-9.6-4.1c-3.7,0-7.2,1.4-9.7,4.1c-2.7,2.7-4.2,6.4-4.1,10.3
		c-0.1,3.8,1.3,7.6,4.1,10.3C274.5,76.2,278,77.7,281.6,77.6z"/>
	
		<linearGradient id="Caminho_124_1_" gradientUnits="userSpaceOnUse" x1="-585.506" y1="-167.3656" x2="-586.0421" y2="-164.0862" gradientTransform="matrix(119.0266 0 0 33.6935 70176.0469 5652.8276)">
		<stop  offset="0" style="stop-color:#FF5A4B"/>
		<stop  offset="1" style="stop-color:#FF877A"/>
	</linearGradient>
	<path id="Caminho_124" class="st5" d="M345,36c8.2-0.2,16,3.5,21.1,9.8l-8.1,8.8c-3.4-3.4-8.1-5.4-12.9-5.5c-3.6-0.1-7.2,1.4-9.7,4
		c-2.7,2.7-4.2,6.4-4.1,10.3c-0.1,3.8,1.3,7.6,4.1,10.3c2.6,2.6,6.1,4,9.7,4c4.9-0.1,9.5-2,12.9-5.5l8.1,8.8
		c-9.8,11.6-27.1,13.2-38.8,3.4c-0.6-0.5-1.2-1-1.7-1.6c-5.2-5.1-8-12.1-7.9-19.4c-0.1-15,12-27.3,27-27.4C344.7,36,344.9,36,345,36
		L345,36z M404.2,35.9c7.6,0,13.3,2.4,17.3,7.1c4,4.6,6,10.9,6,18.9v28.2h-13.6V62.8c0-9.1-4-13.7-11.9-13.7c-3.5-0.2-7,1.2-9.4,3.7
		c-2.4,3.2-3.6,7.1-3.3,11.1v26.2h-13.6V15.3h13.6v26.9C392.6,38,397.5,35.9,404.2,35.9L404.2,35.9z M490.4,90.1h-9.1l-0.7-7.6
		c-4.2,5.4-10.9,8.5-17.7,8.2c-7.1,0.2-13.9-2.7-18.7-7.9c-4.9-5.3-7.6-12.3-7.4-19.5c-0.2-7.2,2.5-14.2,7.4-19.5
		c4.8-5.3,11.6-8.2,18.7-8c6.9-0.3,13.5,2.8,17.7,8.3l0.7-7.6h9.1V90.1z M464.1,77.6c3.6,0,7.1-1.4,9.6-4c2.8-2.7,4.3-6.4,4.2-10.3
		c0.1-3.9-1.4-7.6-4.2-10.3c-2.5-2.6-6-4.1-9.6-4.1c-3.7,0-7.2,1.4-9.7,4.1c-2.7,2.7-4.2,6.4-4.1,10.3c-0.1,3.8,1.3,7.6,4.1,10.3
		C456.9,76.2,460.4,77.7,464.1,77.6L464.1,77.6z M511.7,31.9c-2.1,0-4.1-0.7-5.7-2c-2.8-2.5-3-6.7-0.5-9.5c0.2-0.2,0.3-0.4,0.5-0.5
		c1.6-1.4,3.6-2.1,5.7-2c2.1-0.1,4.1,0.7,5.7,2c2.8,2.3,3.1,6.4,0.8,9.2c-0.3,0.3-0.5,0.6-0.8,0.8C515.8,31.2,513.8,31.9,511.7,31.9
		z M505,90.1V36.7h13.6v53.5L505,90.1L505,90.1z M561,35.9c7.6,0,13.3,2.4,17.3,7.1c4,4.6,6,10.9,6,18.9v28.2h-13.6V62.8
		c0-9.1-4-13.7-11.9-13.7c-3.5-0.2-7,1.2-9.4,3.7c-2.4,3.2-3.6,7.1-3.3,11.1v26.2h-13.6V36.7h9.1l1,8.3
		C546.3,39,552.4,35.9,561,35.9z"/>
	<path class="st6" d="M181.9,90.1"/>
	<path class="st6" d="M33.1,90.1"/>
</g>
</svg>
